<svg xmlns="http://www.w3.org/2000/svg" viewBox="0 0 128 128"><defs><style>.cls-1,.cls-4{fill:#ffb125;}.cls-1{opacity:0.24;}.cls-2{fill:#fd5c74;}.cls-3{fill:#fff458;}.cls-5{fill:none;stroke:#27393b;stroke-linecap:round;stroke-linejoin:round;stroke-width:4px;}</style></defs><title>notification-bell</title><g id="circles"><circle class="cls-1" cx="64" cy="64" r="54"/></g><g id="icons"><path class="cls-2" d="M71.72,107.88A8.215,8.215,0,0,1,72,110a8,8,0,0,1-16,0,8.215,8.215,0,0,1,.28-2.12c2.5.08,5.08.12,7.72.12S69.22,107.96,71.72,107.88Z"/><path class="cls-3" d="M104.34,90.96A25.251,25.251,0,0,1,106,101c0,3.43-14.77,6.28-34.28,6.88-2.5.08-5.08.12-7.72.12s-5.22-.04-7.72-.12C36.77,107.28,22,104.43,22,101a25.251,25.251,0,0,1,1.66-10.04C28.74,93.87,44.87,96,64,96S99.26,93.87,104.34,90.96Z"/><path class="cls-4" d="M95,51c0,30.22,6.28,32.47,9.34,39.96C99.26,93.87,83.13,96,64,96s-35.26-2.13-40.34-5.04C26.72,83.47,33,81.22,33,51A31.007,31.007,0,0,1,54.13,21.61,9.457,9.457,0,0,1,54,20a10,10,0,0,1,20,0,9.457,9.457,0,0,1-.13,1.61A31.007,31.007,0,0,1,95,51Z"/><path class="cls-5" d="M47.05,25.05a30.938,30.938,0,0,1,7.08-3.44A9.457,9.457,0,0,1,54,20a10,10,0,0,1,20,0,9.457,9.457,0,0,1-.13,1.61A31.007,31.007,0,0,1,95,51c0,3.32.08,6.31.21,9"/><path class="cls-5" d="M96.18,70c1.97,12.81,5.93,15.49,8.16,20.96A25.251,25.251,0,0,1,106,101c0,3.43-14.77,6.28-34.28,6.88"/><path class="cls-5" d="M38,106.5c5.23.69,11.46,1.17,18.28,1.38"/><path class="cls-5" d="M33.14,48a30.851,30.851,0,0,1,7.5-17.36"/><path class="cls-5" d="M28,104.6c-3.81-1.04-6-2.27-6-3.6a25.251,25.251,0,0,1,1.66-10.04c2.8-6.86,8.31-9.33,9.21-32.96"/><path class="cls-5" d="M71.72,107.88A8.215,8.215,0,0,1,72,110a8,8,0,0,1-16,0,8.215,8.215,0,0,1,.28-2.12c2.5.08,5.08.12,7.72.12S69.22,107.96,71.72,107.88Z"/><path class="cls-5" d="M104.34,90.96c-2.09,1.2-6.06,2.27-11.34,3.1"/><path class="cls-5" d="M23.66,90.96c4.63,2.65,18.44,4.66,35.34,5"/><path class="cls-5" d="M83,95.24c-4.29.37-9.01.61-14,.72"/></g></svg>